PathFileType  4	(X/Y/Z) C:\Users\antoi\Documents\MyRepositories\mobilecap\ResultsAnalysis
DataRate	CameraRate	NumFrames	NumMarkers	Units	OrigDataRate	OrigDataStartFrame	OrigNumFrames
100.0	100.0	4	51	mm	100.0	1	137
Frame#	Time	r_knee			r_shank_antsup			r_ankle			r_calc			r_5meta			r_toe			L_knee			L_shank_antsup			L_ankle			L_calc			L_5meta			L_toe			r_sh2			r_sh3			r_sh4			L_sh2			L_sh3			r_thigh1			r_thigh2			r_thigh3			r_thigh4			r_thigh5			L_thigh1			L_thigh2			L_thigh3			L_thigh4			r.ASIS			r.PSIS			L.ASIS			L.PSIS			C7			R_Shoulder			L_Shoulder			R_Sternum			L_Sternum			R_humerus			R_elbow_med			R_elbow_lat			R_forearm			R_wrist_radius			R_wrist_ulna			L_humerus			L_elbow_med			L_elbow_lat			L_forearm			L_wrist_radius			L_wrist_ulna			R_HJC			L_HJC			R_HJC_reg			L_HJC_reg			
		X1	Y1	Z1	X2	Y2	Z2	X3	Y3	Z3	X4	Y4	Z4	X5	Y5	Z5	X6	Y6	Z6	X7	Y7	Z7	X8	Y8	Z8	X9	Y9	Z9	X10	Y10	Z10	X11	Y11	Z11	X12	Y12	Z12	X13	Y13	Z13	X14	Y14	Z14	X15	Y15	Z15	X16	Y16	Z16	X17	Y17	Z17	X18	Y18	Z18	X19	Y19	Z19	X20	Y20	Z20	X21	Y21	Z21	X22	Y22	Z22	X23	Y23	Z23	X24	Y24	Z24	X25	Y25	Z25	X26	Y26	Z26	X27	Y27	Z27	X28	Y28	Z28	X29	Y29	Z29	X30	Y30	Z30	X31	Y31	Z31	X32	Y32	Z32	X33	Y33	Z33	X34	Y34	Z34	X35	Y35	Z35	X36	Y36	Z36	X37	Y37	Z37	X38	Y38	Z38	X39	Y39	Z39	X40	Y40	Z40	X41	Y41	Z41	X42	Y42	Z42	X43	Y43	Z43	X44	Y44	Z44	X45	Y45	Z45	X46	Y46	Z46	X47	Y47	Z47	X48	Y48	Z48	X49	Y49	Z49	X50	Y50	Z50	X51	Y51	Z51	

1	0.00000000	-158.12329	551.25332	-88.80371	-80.87786	489.47995	-100.68157	21.24436	158.04355	-127.11585	-17.33270	71.56216	-174.66993	163.58650	157.16741	-92.49677	188.43137	219.79761	-153.69919	-521.21674	531.36457	-375.21000	-543.96886	440.48147	-389.13030	-655.91291	125.96128	-299.98013	-738.54151	81.75487	-237.86204	-552.76321	44.71489	-333.27547	-489.20213	67.57035	-272.75490	-44.67034	386.21740	-76.03565	-142.95470	475.25053	-60.10721	-121.56587	361.46438	-54.21097	-629.29992	471.13797	-371.92948	-653.90324	352.52000	-356.49229	-231.88984	867.32819	-76.06851	-185.67743	769.20449	-76.48603	-222.91325	725.16347	-40.88646	-329.93874	818.67860	-54.15697	-276.44070	715.29089	-57.81162	-382.25178	810.01321	-417.38099	-397.89786	672.67318	-393.83209	-491.35009	821.47582	-420.33901	-510.93357	686.57457	-403.39166	-287.54562	1056.82161	-120.74489	-476.91732	1046.41183	-147.67051	-337.64963	1058.84831	-369.27940	-502.17600	1058.33399	-253.89074	-402.12782	1609.38128	-234.59255	-342.79126	1535.82959	-68.06563	-390.25092	1532.26233	-402.55238	-298.52680	1495.58103	-211.88717	-309.36414	1493.07735	-269.18326	-382.01036	1381.49081	2.37056	-524.66139	1218.81695	-45.11259	-509.60551	1232.41028	36.92486	-514.06705	1060.99130	70.54100	-507.74652	962.54969	66.52846	-546.69738	983.36803	89.11701	-392.38137	1413.76931	-485.92860	-367.79666	1166.90788	-452.77273	-356.74366	1193.10902	-531.58545	-286.08214	1163.89902	-551.78978	-145.40415	1052.11503	-556.47151	-173.70716	1027.78902	-576.74467	-354.61130	931.45426	-129.46237	-405.18301	942.08727	-329.86721	-337.47134	956.59310	-156.39923	-375.95525	974.75748	-318.23567	
2	0.01000000	-142.58803	549.81178	-90.21855	-66.33617	487.16690	-102.72443	32.43688	154.51178	-129.43812	-6.82471	67.77451	-176.52826	174.90109	153.17185	-95.86021	199.46421	215.65787	-157.29520	-512.16798	531.08603	-375.12652	-536.43705	440.48722	-389.25849	-653.95954	128.05997	-300.04931	-737.17215	84.91012	-237.84349	-552.40333	44.51469	-333.02105	-488.22982	66.88161	-273.12491	-29.95110	383.31833	-78.72019	-127.74612	473.56992	-61.31161	-106.88536	359.43563	-55.39654	-620.83548	472.81956	-371.09384	-647.91984	354.69863	-355.74140	-216.83894	865.94883	-77.56167	-170.48466	767.91078	-78.90484	-206.59197	724.15913	-41.94056	-314.18001	817.18417	-53.76062	-260.69942	713.05847	-58.26509	-371.13358	808.59291	-417.57253	-387.98414	671.08210	-394.57208	-480.14052	820.93056	-418.98219	-500.96398	686.43933	-402.95024	-272.18859	1055.02196	-120.88875	-461.77540	1044.69495	-146.47262	-323.81324	1056.86586	-369.16071	-487.46551	1056.56029	-252.55094	-387.41414	1607.80627	-234.17900	-327.94691	1534.24709	-67.96484	-376.52250	1530.74786	-401.96084	-283.92800	1493.77418	-211.79663	-294.84200	1491.23149	-269.15717	-367.93478	1380.15936	2.71647	-511.97143	1218.66163	-45.09674	-497.04312	1232.12614	36.96275	-502.90320	1060.80807	70.62764	-497.49198	962.27036	66.58570	-536.21893	983.41492	89.16359	-378.91341	1412.80556	-485.81048	-352.63583	1165.77778	-453.79435	-341.86697	1192.58046	-532.54799	-270.71539	1164.49660	-552.60738	-127.94301	1055.48522	-557.35505	-155.79330	1030.75526	-577.95404	-339.32396	929.68722	-129.03291	-391.18225	940.17984	-329.10870	-322.58653	954.77047	-156.22243	-361.74916	972.85929	-317.93741	
3	0.02000000	-127.25936	548.27095	-91.65061	-52.03420	484.67406	-104.79238	43.04229	150.88025	-131.82273	2.87882	64.24102	-178.37461	185.63153	148.83539	-99.19929	210.08380	210.98653	-160.95627	-502.90511	530.85635	-375.03957	-528.68768	440.55032	-389.39383	-651.86943	130.32799	-300.16075	-735.69994	88.34864	-237.86452	-551.97680	44.33508	-332.82562	-487.22991	66.16370	-273.48835	-15.72302	380.26026	-81.37429	-112.84047	471.76614	-62.56072	-92.70567	357.31654	-56.60679	-612.14851	474.56965	-370.31506	-641.73653	356.98388	-355.03840	-201.64795	864.66039	-78.97063	-155.18038	766.64258	-81.34708	-190.19285	723.10178	-43.12368	-298.24094	815.79035	-53.29684	-244.86045	711.01065	-58.89283	-359.82514	807.22627	-417.74950	-377.83883	669.59147	-395.28200	-468.73003	820.43945	-417.66313	-490.73808	686.31307	-402.39480	-256.70034	1053.32430	-120.93779	-446.48199	1043.01888	-145.25037	-309.79371	1054.92617	-368.98231	-472.61591	1054.83931	-251.18084	-372.64731	1606.29622	-233.74634	-313.02355	1532.73145	-67.81897	-362.74513	1529.28906	-401.36253	-269.27070	1492.04407	-211.68293	-280.26927	1489.45900	-269.10475	-353.76576	1378.89171	3.08568	-499.08958	1218.49950	-45.04942	-484.32113	1231.86782	37.03058	-491.50136	1060.63507	70.75587	-486.93675	962.01737	66.70301	-525.46633	983.46781	89.25550	-365.42841	1411.83990	-485.64323	-337.65067	1164.65535	-454.75387	-327.16258	1192.03053	-533.45445	-255.54983	1165.04918	-553.38816	-110.75722	1058.76717	-558.20312	-138.15259	1033.64529	-579.11023	-323.88397	928.00198	-128.52351	-376.98407	938.31564	-328.28151	-307.49337	952.98241	-155.98096	-347.35878	971.01546	-317.58329	
4	0.03000000	-112.32509	546.54571	-93.11052	-38.18699	481.87236	-106.90143	52.65901	147.11448	-134.32320	11.20339	61.23275	-180.19561	195.36855	143.92511	-102.51791	220.01780	205.39532	-164.75624	-493.23621	530.72453	-374.94666	-520.52241	440.72507	-389.54368	-649.52692	132.91969	-300.35628	-734.02980	92.31269	-237.96715	-551.43269	44.19903	-332.73027	-486.18301	65.39655	-273.84164	-2.36053	376.92314	-83.99210	-98.49514	469.73719	-63.88680	-79.40371	355.01903	-57.88627	-603.03731	476.45169	-369.64408	-635.16865	359.46655	-354.43033	-186.17493	863.51235	-80.24093	-139.67714	765.39119	-83.81414	-173.68230	721.93731	-44.52679	-281.98094	814.58931	-52.73047	-228.87676	709.30617	-59.79215	-348.14907	805.96406	-417.89268	-367.26096	668.27865	-395.93280	-456.94117	820.05314	-416.41615	-480.04552	686.21921	-401.66760	-240.96829	1051.81326	-120.82597	-430.92180	1041.44035	-143.98719	-295.43559	1053.07228	-368.70212	-457.50498	1053.21970	-249.75625	-357.78496	1604.91401	-233.27953	-297.96232	1531.34351	-67.59528	-348.87453	1527.93239	-400.75225	-254.50245	1490.45938	-211.52702	-265.59848	1487.82214	-269.00148	-339.41868	1377.74088	3.49559	-485.85512	1218.32506	-44.94283	-471.29983	1231.65299	37.15616	-479.65614	1060.47971	70.96226	-475.83002	961.80759	66.93131	-514.20549	983.52873	89.43164	-351.91664	1410.87460	-485.39252	-322.98363	1163.54409	-455.60136	-312.77426	1191.44015	-534.25708	-240.74958	1165.51596	-554.10233	-94.07260	1061.88176	-558.98613	-121.00910	1036.38897	-580.16790	-308.16964	926.47391	-127.87271	-362.43047	936.53840	-327.33347	-292.04549	951.28535	-155.61438	-332.63408	969.27234	-317.12557	
